<?xml version="1.0" standalone="no"?>
<!DOCTYPE svg PUBLIC "-//W3C//DTD SVG 20010904//EN"
 "http://www.w3.org/TR/2001/REC-SVG-20010904/DTD/svg10.dtd">
<svg version="1.0" xmlns="http://www.w3.org/2000/svg"
 width="200.000000pt" height="200.000000pt" viewBox="0 0 200.000000 200.000000"
 preserveAspectRatio="xMidYMid meet">
<metadata>
Created by potrace 1.14, written by Peter Selinger 2001-2017
</metadata>
<g transform="translate(0.000000,200.000000) scale(0.100000,-0.100000)"
fill="#000000" stroke="none">
<path d="M827 1985 c-395 -75 -702 -364 -799 -752 -18 -70 -22 -117 -22 -233
0 -182 22 -278 99 -436 133 -274 366 -462 662 -536 70 -18 117 -22 233 -22
182 0 278 22 436 99 274 133 462 366 536 662 18 70 22 117 22 233 0 182 -22
278 -99 436 -133 274 -353 454 -645 531 -121 31 -308 39 -423 18z m328 -511
c82 -29 185 -153 185 -223 0 -26 -18 -31 -114 -31 l-81 0 -20 37 c-29 53 -68
73 -142 73 -55 0 -67 -4 -95 -29 -27 -24 -33 -36 -33 -71 0 -56 31 -80 144
-115 220 -68 239 -76 286 -117 57 -51 86 -105 92 -178 12 -124 -57 -240 -170
-291 -46 -21 -67 -24 -187 -24 -127 0 -139 2 -194 28 -111 52 -184 134 -201
228 l-7 36 54 6 c29 4 74 7 100 7 44 0 49 -3 64 -32 33 -65 85 -102 163 -114
83 -13 171 44 171 110 0 65 -40 93 -207 145 -192 59 -252 99 -294 194 -71 163
17 331 198 377 58 14 230 5 288 -16z"/>
</g>
</svg>
